<svg xmlns="http://www.w3.org/2000/svg" version="1.1" xmlns:xlink="http://www.w3.org/1999/xlink" width="749.568" height="677.888"><svg preserveAspectRatio="xMidYMid meet" viewBox="149.504 143.36 749.568 677.888" xmlns="http://www.w3.org/2000/svg" version="1.0" style="max-height: 500px" width="749.568" height="677.888">

<g stroke="none" fill="#00a3e4" transform="translate(0.000000,1024.000000) scale(0.100000,-0.100000)">
<path d="M5036 8499 c-138 -122 -312 -362 -416 -574 -163 -333 -234 -728 -201
-1120 25 -301 87 -497 279 -896 212 -439 266 -636 267 -974 0 -99 -3 -202 -8
-230 l-7 -49 30 48 c159 250 293 681 350 1124 70 548 32 1210 -104 1792 -19
80 -37 154 -40 165 -17 54 60 -120 109 -250 160 -423 240 -823 247 -1236 l3
-167 36 29 c19 15 92 86 161 158 232 239 370 488 434 786 26 123 24 335 -5
448 -58 225 -173 419 -352 594 -166 163 -349 275 -576 354 -138 48 -150 48
-207 -2z"></path>
<path d="M6356 7206 c-47 -404 -330 -864 -733 -1193 l-92 -74 -6 -57 c-34
-339 -115 -682 -227 -961 -282 -710 -767 -1334 -1345 -1734 -188 -130 -375
-244 -583 -355 -266 -142 -278 -152 -265 -218 4 -23 20 -51 40 -71 27 -27 41
-33 75 -33 23 0 51 5 63 12 34 17 337 249 482 368 l131 107 88 -53 c158 -95
329 -148 525 -160 56 -4 101 -4 101 -1 0 3 -20 15 -44 25 -81 36 -303 198
-424 308 l-53 49 35 28 35 27 70 -45 c86 -56 239 -117 346 -140 105 -22 283
-22 410 0 446 77 875 390 1172 858 92 146 223 420 223 468 0 5 -28 -11 -62
-35 -246 -171 -609 -267 -1007 -266 l-126 1 115 30 c291 75 525 175 725 307
119 80 288 244 362 352 122 180 203 402 228 630 l8 65 -74 -70 c-154 -146
-305 -242 -484 -308 -114 -42 -124 -41 -50 3 146 87 325 253 426 396 112 156
206 367 224 499 l7 50 -42 -60 c-46 -65 -170 -215 -196 -236 -11 -9 -8 3 9 36
160 312 191 696 87 1075 -37 136 -150 430 -165 430 -1 0 -5 -24 -9 -54z m-966
-3617 c-171 -73 -248 -90 -413 -96 -166 -6 -255 4 -377 45 l-79 27 306 2 c319
2 446 12 561 42 104 28 105 23 2 -20z"></path>
<path d="M4271 6293 c-35 -151 -51 -311 -51 -498 0 -236 22 -378 121 -800 57
-247 60 -265 64 -470 3 -149 2 -185 -5 -140 -21 130 -45 206 -205 660 -62 176
-115 368 -115 419 0 52 -11 49 -40 -12 -88 -187 -162 -436 -197 -662 -20 -134
-25 -203 -26 -365 0 -247 20 -397 98 -705 72 -286 66 -266 79 -249 6 8 45 41
86 74 163 130 355 332 467 490 211 300 300 591 290 950 -9 308 -60 453 -357
1010 -44 83 -100 202 -126 265 -25 63 -49 118 -53 123 -4 4 -18 -36 -30 -90z"></path>
<path d="M3616 4138 c-24 -201 -15 -419 24 -584 20 -87 55 -193 76 -236 l14
-28 76 47 c75 46 75 47 69 82 -7 37 -67 220 -159 486 -30 88 -61 185 -67 215
-17 76 -25 80 -33 18z"></path>
</g>
</svg><style>@media (prefers-color-scheme: light) { :root { filter: none; } }
@media (prefers-color-scheme: dark) { :root { filter: none; } }
</style></svg>